# xmcd
#
# Track frame offsets: 
#        150
#        10624
#        27444
#        40262
#        54027
#        70540
#        79955
#        90830
#        102866
#        115036
#        127055
#        140535
#        154264
#        168810
#        183738
#        199822
#        217621
#        237271
#        257321
#        279194
#        291644
#        305055
#
# Disc length: 4246 seconds
#
# Revision: 1
# Processed by: cddbd v1.5.2PL0 Copyright (c) Steve Scherf et al.
# Submitted via: ExactAudioCopy v1.1
#
DISCID=24109416
DTITLE=Chet Baker - Jazz Manifesto
DYEAR=2008
DGENRE=Jazz
TTITLE0=My Funny Valentine
TTITLE1=Let's Get Lost
TTITLE2=The Thrill Is Gone
TTITLE3=But Not For Me
TTITLE4=Grey December
TTITLE5=I Fall In Love Too Easily
TTITLE6=Like Someone In Love
TTITLE7=Daybreak
TTITLE8=Just Friends
TTITLE9=Look For The Silver Lining
TTITLE10=There Will Never Be Another You
TTITLE11=That Old Feeling
TTITLE12=I Remember You
TTITLE13=My Buddy
TTITLE14=It's Always You
TTITLE15=Long Ago (And Far Away)
TTITLE16=My Ideal
TTITLE17=I've Never Been In Love Before
TTITLE18=You Don't Know What Love Is
TTITLE19=Time After Time
TTITLE20=I Get Along Without You Very Well
TTITLE21=Someone To Watch Over Me
EXTD=YEAR: 2008
EXTT0=
EXTT1=
EXTT2=
EXTT3=
EXTT4=
EXTT5=
EXTT6=
EXTT7=
EXTT8=
EXTT9=
EXTT10=
EXTT11=
EXTT12=
EXTT13=
EXTT14=
EXTT15=
EXTT16=
EXTT17=
EXTT18=
EXTT19=
EXTT20=
EXTT21=
PLAYORDER=
